<svg width="24" height="24" viewBox="0 0 24 24" fill="none" xmlns="http://www.w3.org/2000/svg">
<rect width="24" height="24" fill="white"/>
<rect x="4" y="20" width="16" height="1" rx="0.5" fill="#71FF90"/>
<path d="M5 10C5 9.44771 5.44772 9 6 9H18C18.5523 9 19 9.44772 19 10V16C19 18.2091 17.2091 20 15 20H9C6.79086 20 5 18.2091 5 16V10Z" fill="#71FF90"/>
<path fill-rule="evenodd" clip-rule="evenodd" d="M22 13.5C22 15.433 20.5076 17 18.6667 17C18.4384 17 18.2154 16.9759 18 16.93V15.8333C19.4728 15.8333 20.6667 14.7887 20.6667 13.5C20.6667 12.2113 19.4728 11.1667 18 11.1667V10.07C18.2154 10.0241 18.4384 10 18.6667 10C20.5076 10 22 11.567 22 13.5Z" fill="#71FF90"/>
<path fill-rule="evenodd" clip-rule="evenodd" d="M22 13.5C22 15.433 20.5076 17 18.6667 17C18.4384 17 18.2154 16.9759 18 16.93V15.8333C19.4728 15.8333 20.6667 14.7887 20.6667 13.5C20.6667 12.2113 19.4728 11.1667 18 11.1667V10.07C18.2154 10.0241 18.4384 10 18.6667 10C20.5076 10 22 11.567 22 13.5Z" fill="#71FF90"/>
<path d="M9 2L8.70711 2.29289C8.25435 2.74565 8 3.35971 8 4V4.29289C8 4.74565 8.17986 5.17986 8.5 5.5V5.5C8.82014 5.82014 9 6.25435 9 6.70711V8" stroke="#71FF90" stroke-width="2"/>
<path d="M16 2L15.7071 2.29289C15.2544 2.74565 15 3.35971 15 4V4.29289C15 4.74565 15.1799 5.17986 15.5 5.5V5.5C15.8201 5.82014 16 6.25435 16 6.70711V8" stroke="#71FF90" stroke-width="2"/>
</svg>
