<svg width="24" height="24" viewBox="0 0 24 24" fill="none" xmlns="http://www.w3.org/2000/svg">
<rect width="24" height="24" fill="white"/>
<rect x="6" y="9" width="2" height="11" rx="1" fill="#71FF90"/>
<rect x="16" y="9" width="2" height="11" rx="1" fill="#71FF90"/>
<ellipse cx="7" cy="6" rx="3" ry="4" fill="#71FF90"/>
<path fill-rule="evenodd" clip-rule="evenodd" d="M15.2 3.6C15.2 3.26863 14.9314 3 14.6 3V3C14.2686 3 14 3.26863 14 3.6V9C14 9.55228 14.4477 10 15 10H19C19.5523 10 20 9.55228 20 9V3.6C20 3.26863 19.7314 3 19.4 3V3C19.0686 3 18.8 3.26863 18.8 3.6V7.65C18.8 7.98137 18.5314 8.25 18.2 8.25V8.25C17.8686 8.25 17.6 7.98137 17.6 7.65V3.6C17.6 3.26863 17.3314 3 17 3V3C16.6686 3 16.4 3.26863 16.4 3.6V7.65C16.4 7.98137 16.1314 8.25 15.8 8.25V8.25C15.4686 8.25 15.2 7.98137 15.2 7.65V3.6Z" fill="#71FF90"/>
</svg>
